<?xml version="1.0" encoding="UTF-8" standalone="no"?>
<!DOCTYPE svg PUBLIC "-//W3C//DTD SVG 1.1//EN"
 "http://www.w3.org/Graphics/SVG/1.1/DTD/svg11.dtd">
<!-- Generated by graphviz version 2.40.1 (20161225.0304)
 -->
<!-- Title: dependencies Pages: 1 -->
<svg width="634pt" height="211pt"
 viewBox="0.00 0.00 634.00 211.00" xmlns="http://www.w3.org/2000/svg" xmlns:xlink="http://www.w3.org/1999/xlink">
<g id="graph0" class="graph" transform="scale(1 1) rotate(0) translate(4 207)">
<title>dependencies</title>
<polygon fill="#ffffff" stroke="transparent" points="-4,4 -4,-207 630,-207 630,4 -4,4"/>
<text text-anchor="start" x="292.0091" y="-42.4" font-family="sans-serif" font-weight="bold" font-size="14.00" fill="#000000">Legend</text>
<polygon fill="#ffffb3" stroke="transparent" points="79,-10 79,-30 99,-30 99,-10 79,-10"/>
<text text-anchor="start" x="102.629" y="-15.4" font-family="sans-serif" font-size="14.00" fill="#000000"> &#160;Declarations</text>
<polygon fill="#8dd3c7" stroke="transparent" points="192,-10 192,-30 212,-30 212,-10 192,-10"/>
<text text-anchor="start" x="215.7251" y="-15.4" font-family="sans-serif" font-size="14.00" fill="#000000"> &#160;Module</text>
<polygon fill="#80b1d3" stroke="transparent" points="278,-10 278,-30 298,-30 298,-10 278,-10"/>
<text text-anchor="start" x="301.7812" y="-15.4" font-family="sans-serif" font-size="14.00" fill="#000000"> &#160;Bootstrap</text>
<polygon fill="#fdb462" stroke="transparent" points="375,-10 375,-30 395,-30 395,-10 375,-10"/>
<text text-anchor="start" x="398.6732" y="-15.4" font-family="sans-serif" font-size="14.00" fill="#000000"> &#160;Providers</text>
<polygon fill="#fb8072" stroke="transparent" points="471,-10 471,-30 491,-30 491,-10 471,-10"/>
<text text-anchor="start" x="494.7258" y="-15.4" font-family="sans-serif" font-size="14.00" fill="#000000"> &#160;Exports</text>
<g id="clust1" class="cluster">
<title>cluster_OrderModuleModule</title>
<polygon fill="none" stroke="#000000" stroke-dasharray="1,5" points="8,-70 8,-195 618,-195 618,-70 8,-70"/>
</g>
<g id="clust2" class="cluster">
<title>cluster_OrderModuleModule_declarations</title>
<polygon fill="none" stroke="#000000" points="136,-78 136,-130 610,-130 610,-78 136,-78"/>
</g>
<g id="clust6" class="cluster">
<title>cluster_OrderModuleModule_imports</title>
<polygon fill="none" stroke="#000000" points="16,-78 16,-130 128,-130 128,-78 16,-78"/>
</g>
<!-- OrderAddComponent -->
<g id="node1" class="node">
<title>OrderAddComponent</title>
<polygon fill="#ffffb3" stroke="#000000" points="602.0814,-122 463.9186,-122 463.9186,-86 602.0814,-86 602.0814,-122"/>
<text text-anchor="middle" x="533" y="-99.8" font-family="Times,serif" font-size="14.00" fill="#000000">OrderAddComponent</text>
</g>
<!-- OrderModuleModule -->
<g id="node4" class="node">
<title>OrderModuleModule</title>
<polygon fill="#8dd3c7" stroke="#000000" points="365.7422,-187 362.7422,-191 341.7422,-191 338.7422,-187 230.2578,-187 230.2578,-151 365.7422,-151 365.7422,-187"/>
<text text-anchor="middle" x="298" y="-164.8" font-family="Times,serif" font-size="14.00" fill="#000000">OrderModuleModule</text>
</g>
<!-- OrderAddComponent&#45;&gt;OrderModuleModule -->
<g id="edge1" class="edge">
<title>OrderAddComponent&#45;&gt;OrderModuleModule</title>
<path fill="none" stroke="#000000" d="M533,-122.1061C533,-141.3391 533,-169 533,-169 533,-169 375.9717,-169 375.9717,-169"/>
<polygon fill="#000000" stroke="#000000" points="375.9718,-165.5001 365.9717,-169 375.9717,-172.5001 375.9718,-165.5001"/>
</g>
<!-- OrderListComponent -->
<g id="node2" class="node">
<title>OrderListComponent</title>
<polygon fill="#ffffb3" stroke="#000000" points="445.7534,-122 310.2466,-122 310.2466,-86 445.7534,-86 445.7534,-122"/>
<text text-anchor="middle" x="378" y="-99.8" font-family="Times,serif" font-size="14.00" fill="#000000">OrderListComponent</text>
</g>
<!-- OrderListComponent&#45;&gt;OrderModuleModule -->
<g id="edge2" class="edge">
<title>OrderListComponent&#45;&gt;OrderModuleModule</title>
<path fill="none" stroke="#000000" d="M337.9972,-122.1061C337.9972,-122.1061 337.9972,-140.991 337.9972,-140.991"/>
<polygon fill="#000000" stroke="#000000" points="334.4973,-140.9909 337.9972,-150.991 341.4973,-140.991 334.4973,-140.9909"/>
</g>
<!-- OrderDetailComponent -->
<g id="node3" class="node">
<title>OrderDetailComponent</title>
<polygon fill="#ffffb3" stroke="#000000" points="292.1825,-122 143.8175,-122 143.8175,-86 292.1825,-86 292.1825,-122"/>
<text text-anchor="middle" x="218" y="-99.8" font-family="Times,serif" font-size="14.00" fill="#000000">OrderDetailComponent</text>
</g>
<!-- OrderDetailComponent&#45;&gt;OrderModuleModule -->
<g id="edge3" class="edge">
<title>OrderDetailComponent&#45;&gt;OrderModuleModule</title>
<path fill="none" stroke="#000000" d="M261.1101,-122.1061C261.1101,-122.1061 261.1101,-140.991 261.1101,-140.991"/>
<polygon fill="#000000" stroke="#000000" points="257.6102,-140.9909 261.1101,-150.991 264.6102,-140.991 257.6102,-140.9909"/>
</g>
<!-- ordersRouting -->
<g id="node5" class="node">
<title>ordersRouting</title>
<polygon fill="#8dd3c7" stroke="#000000" points="120.0983,-122 117.0983,-126 96.0983,-126 93.0983,-122 23.9017,-122 23.9017,-86 120.0983,-86 120.0983,-122"/>
<text text-anchor="middle" x="72" y="-99.8" font-family="Times,serif" font-size="14.00" fill="#000000">ordersRouting</text>
</g>
<!-- ordersRouting&#45;&gt;OrderModuleModule -->
<g id="edge4" class="edge">
<title>ordersRouting&#45;&gt;OrderModuleModule</title>
<path fill="none" stroke="#000000" d="M72,-122.1061C72,-141.3391 72,-169 72,-169 72,-169 220.1925,-169 220.1925,-169"/>
<polygon fill="#000000" stroke="#000000" points="220.1926,-172.5001 230.1925,-169 220.1925,-165.5001 220.1926,-172.5001"/>
</g>
</g>
</svg>
