<?xml version="1.0" encoding="UTF-8" standalone="no"?>
<!DOCTYPE svg PUBLIC "-//W3C//DTD SVG 1.1//EN"
 "http://www.w3.org/Graphics/SVG/1.1/DTD/svg11.dtd">
<!-- Generated by graphviz version 2.40.1 (20161225.0304)
 -->
<!-- Title: dependencies Pages: 1 -->
<svg width="1004pt" height="284pt"
 viewBox="0.00 0.00 1004.00 284.00" xmlns="http://www.w3.org/2000/svg" xmlns:xlink="http://www.w3.org/1999/xlink">
<g id="graph0" class="graph" transform="scale(1 1) rotate(0) translate(4 280)">
<title>dependencies</title>
<polygon fill="#ffffff" stroke="transparent" points="-4,4 -4,-280 1000,-280 1000,4 -4,4"/>
<text text-anchor="start" x="477.0091" y="-42.4" font-family="sans-serif" font-weight="bold" font-size="14.00" fill="#000000">Legend</text>
<polygon fill="#ffffb3" stroke="transparent" points="264,-10 264,-30 284,-30 284,-10 264,-10"/>
<text text-anchor="start" x="287.629" y="-15.4" font-family="sans-serif" font-size="14.00" fill="#000000"> &#160;Declarations</text>
<polygon fill="#8dd3c7" stroke="transparent" points="377,-10 377,-30 397,-30 397,-10 377,-10"/>
<text text-anchor="start" x="400.7251" y="-15.4" font-family="sans-serif" font-size="14.00" fill="#000000"> &#160;Module</text>
<polygon fill="#80b1d3" stroke="transparent" points="463,-10 463,-30 483,-30 483,-10 463,-10"/>
<text text-anchor="start" x="486.7812" y="-15.4" font-family="sans-serif" font-size="14.00" fill="#000000"> &#160;Bootstrap</text>
<polygon fill="#fdb462" stroke="transparent" points="560,-10 560,-30 580,-30 580,-10 560,-10"/>
<text text-anchor="start" x="583.6732" y="-15.4" font-family="sans-serif" font-size="14.00" fill="#000000"> &#160;Providers</text>
<polygon fill="#fb8072" stroke="transparent" points="656,-10 656,-30 676,-30 676,-10 656,-10"/>
<text text-anchor="start" x="679.7258" y="-15.4" font-family="sans-serif" font-size="14.00" fill="#000000"> &#160;Exports</text>
<g id="clust1" class="cluster">
<title>cluster_ProductModuleModule</title>
<polygon fill="none" stroke="#000000" stroke-dasharray="1,5" points="8,-70 8,-268 988,-268 988,-70 8,-70"/>
</g>
<g id="clust2" class="cluster">
<title>cluster_ProductModuleModule_declarations</title>
<polygon fill="none" stroke="#000000" points="310,-78 310,-130 980,-130 980,-78 310,-78"/>
</g>
<g id="clust7" class="cluster">
<title>cluster_ProductModuleModule_imports</title>
<polygon fill="none" stroke="#000000" points="176,-78 176,-130 302,-130 302,-78 176,-78"/>
</g>
<g id="clust8" class="cluster">
<title>cluster_ProductModuleModule_exports</title>
<polygon fill="none" stroke="#000000" points="211,-208 211,-260 728,-260 728,-208 211,-208"/>
</g>
<g id="clust10" class="cluster">
<title>cluster_ProductModuleModule_providers</title>
<polygon fill="none" stroke="#000000" points="16,-78 16,-130 168,-130 168,-78 16,-78"/>
</g>
<!-- ProductListComponent -->
<g id="node1" class="node">
<title>ProductListComponent</title>
<polygon fill="#ffffb3" stroke="#000000" points="972.1596,-122 825.8404,-122 825.8404,-86 972.1596,-86 972.1596,-122"/>
<text text-anchor="middle" x="899" y="-99.8" font-family="Times,serif" font-size="14.00" fill="#000000">ProductListComponent</text>
</g>
<!-- ProductModuleModule -->
<g id="node5" class="node">
<title>ProductModuleModule</title>
<polygon fill="#8dd3c7" stroke="#000000" points="549.1484,-187 546.1484,-191 525.1484,-191 522.1484,-187 402.8516,-187 402.8516,-151 549.1484,-151 549.1484,-187"/>
<text text-anchor="middle" x="476" y="-164.8" font-family="Times,serif" font-size="14.00" fill="#000000">ProductModuleModule</text>
</g>
<!-- ProductListComponent&#45;&gt;ProductModuleModule -->
<g id="edge1" class="edge">
<title>ProductListComponent&#45;&gt;ProductModuleModule</title>
<path fill="none" stroke="#000000" d="M899,-122.1061C899,-141.3391 899,-169 899,-169 899,-169 559.1981,-169 559.1981,-169"/>
<polygon fill="#000000" stroke="#000000" points="559.1981,-165.5001 549.1981,-169 559.198,-172.5001 559.1981,-165.5001"/>
</g>
<!-- ProductAddComponent -->
<g id="node2" class="node">
<title>ProductAddComponent</title>
<polygon fill="#ffffb3" stroke="#000000" points="807.4874,-122 658.5126,-122 658.5126,-86 807.4874,-86 807.4874,-122"/>
<text text-anchor="middle" x="733" y="-99.8" font-family="Times,serif" font-size="14.00" fill="#000000">ProductAddComponent</text>
</g>
<!-- ProductAddComponent&#45;&gt;ProductModuleModule -->
<g id="edge2" class="edge">
<title>ProductAddComponent&#45;&gt;ProductModuleModule</title>
<path fill="none" stroke="#000000" d="M689.293,-122.027C689.293,-138.3976 689.293,-160 689.293,-160 689.293,-160 559.4033,-160 559.4033,-160"/>
<polygon fill="#000000" stroke="#000000" points="559.4034,-156.5001 549.4033,-160 559.4033,-163.5001 559.4034,-156.5001"/>
</g>
<!-- ProductDetailComponent -->
<g id="node3" class="node">
<title>ProductDetailComponent</title>
<polygon fill="#ffffb3" stroke="#000000" points="640.5884,-122 481.4116,-122 481.4116,-86 640.5884,-86 640.5884,-122"/>
<text text-anchor="middle" x="561" y="-99.8" font-family="Times,serif" font-size="14.00" fill="#000000">ProductDetailComponent</text>
</g>
<!-- ProductDetailComponent&#45;&gt;ProductModuleModule -->
<g id="edge3" class="edge">
<title>ProductDetailComponent&#45;&gt;ProductModuleModule</title>
<path fill="none" stroke="#000000" d="M515.3899,-122.1061C515.3899,-122.1061 515.3899,-140.991 515.3899,-140.991"/>
<polygon fill="#000000" stroke="#000000" points="511.89,-140.9909 515.3899,-150.991 518.89,-140.991 511.89,-140.9909"/>
</g>
<!-- StoreDetailComponent -->
<g id="node4" class="node">
<title>StoreDetailComponent</title>
<polygon fill="#ffffb3" stroke="#000000" points="463.5884,-122 318.4116,-122 318.4116,-86 463.5884,-86 463.5884,-122"/>
<text text-anchor="middle" x="391" y="-99.8" font-family="Times,serif" font-size="14.00" fill="#000000">StoreDetailComponent</text>
</g>
<!-- StoreDetailComponent&#45;&gt;ProductModuleModule -->
<g id="edge4" class="edge">
<title>StoreDetailComponent&#45;&gt;ProductModuleModule</title>
<path fill="none" stroke="#000000" d="M433.1101,-122.1061C433.1101,-122.1061 433.1101,-140.991 433.1101,-140.991"/>
<polygon fill="#000000" stroke="#000000" points="429.6102,-140.9909 433.1101,-150.991 436.6102,-140.991 429.6102,-140.9909"/>
</g>
<!-- ProductListComponent  -->
<g id="node7" class="node">
<title>ProductListComponent </title>
<polygon fill="#fb8072" stroke="#000000" points="720.1593,-252 569.8407,-252 569.8407,-216 720.1593,-216 720.1593,-252"/>
<text text-anchor="middle" x="645" y="-229.8" font-family="Times,serif" font-size="14.00" fill="#000000">ProductListComponent </text>
</g>
<!-- ProductModuleModule&#45;&gt;ProductListComponent  -->
<g id="edge6" class="edge">
<title>ProductModuleModule&#45;&gt;ProductListComponent </title>
<path fill="none" stroke="#000000" stroke-dasharray="5,2" d="M549.3008,-178C578.4688,-178 605.2323,-178 605.2323,-178 605.2323,-178 605.2323,-205.973 605.2323,-205.973"/>
<polygon fill="#000000" stroke="#000000" points="601.7324,-205.973 605.2323,-215.973 608.7324,-205.973 601.7324,-205.973"/>
</g>
<!-- ProductAddComponent  -->
<g id="node8" class="node">
<title>ProductAddComponent </title>
<polygon fill="#fb8072" stroke="#000000" points="552.4882,-252 399.5118,-252 399.5118,-216 552.4882,-216 552.4882,-252"/>
<text text-anchor="middle" x="476" y="-229.8" font-family="Times,serif" font-size="14.00" fill="#000000">ProductAddComponent </text>
</g>
<!-- ProductModuleModule&#45;&gt;ProductAddComponent  -->
<g id="edge7" class="edge">
<title>ProductModuleModule&#45;&gt;ProductAddComponent </title>
<path fill="none" stroke="#000000" stroke-dasharray="5,2" d="M476,-187.1061C476,-187.1061 476,-205.991 476,-205.991"/>
<polygon fill="#000000" stroke="#000000" points="472.5001,-205.9909 476,-215.991 479.5001,-205.991 472.5001,-205.9909"/>
</g>
<!-- ProductDetailComponent  -->
<g id="node9" class="node">
<title>ProductDetailComponent </title>
<polygon fill="#fb8072" stroke="#000000" points="381.0889,-252 218.9111,-252 218.9111,-216 381.0889,-216 381.0889,-252"/>
<text text-anchor="middle" x="300" y="-229.8" font-family="Times,serif" font-size="14.00" fill="#000000">ProductDetailComponent </text>
</g>
<!-- ProductModuleModule&#45;&gt;ProductDetailComponent  -->
<g id="edge8" class="edge">
<title>ProductModuleModule&#45;&gt;ProductDetailComponent </title>
<path fill="none" stroke="#000000" stroke-dasharray="5,2" d="M402.6326,-178C374.886,-178 349.875,-178 349.875,-178 349.875,-178 349.875,-205.973 349.875,-205.973"/>
<polygon fill="#000000" stroke="#000000" points="346.3751,-205.973 349.875,-215.973 353.3751,-205.973 346.3751,-205.973"/>
</g>
<!-- productsRouting -->
<g id="node6" class="node">
<title>productsRouting</title>
<polygon fill="#8dd3c7" stroke="#000000" points="293.8287,-122 290.8287,-126 269.8287,-126 266.8287,-122 184.1713,-122 184.1713,-86 293.8287,-86 293.8287,-122"/>
<text text-anchor="middle" x="239" y="-99.8" font-family="Times,serif" font-size="14.00" fill="#000000">productsRouting</text>
</g>
<!-- productsRouting&#45;&gt;ProductModuleModule -->
<g id="edge5" class="edge">
<title>productsRouting&#45;&gt;ProductModuleModule</title>
<path fill="none" stroke="#000000" d="M256.185,-122.027C256.185,-138.3976 256.185,-160 256.185,-160 256.185,-160 392.8048,-160 392.8048,-160"/>
<polygon fill="#000000" stroke="#000000" points="392.8048,-163.5001 402.8048,-160 392.8047,-156.5001 392.8048,-163.5001"/>
</g>
<!-- UploadService -->
<g id="node10" class="node">
<title>UploadService</title>
<ellipse fill="#fdb462" stroke="#000000" cx="92" cy="-104" rx="68.3382" ry="18"/>
<text text-anchor="middle" x="92" y="-99.8" font-family="Times,serif" font-size="14.00" fill="#000000">UploadService</text>
</g>
<!-- UploadService&#45;&gt;ProductModuleModule -->
<g id="edge9" class="edge">
<title>UploadService&#45;&gt;ProductModuleModule</title>
<path fill="none" stroke="#000000" d="M92,-122.1061C92,-141.3391 92,-169 92,-169 92,-169 392.4153,-169 392.4153,-169"/>
<polygon fill="#000000" stroke="#000000" points="392.4153,-172.5001 402.4153,-169 392.4153,-165.5001 392.4153,-172.5001"/>
</g>
</g>
</svg>
