<?xml version="1.0" encoding="UTF-8" standalone="no"?>
<!DOCTYPE svg PUBLIC "-//W3C//DTD SVG 1.1//EN"
 "http://www.w3.org/Graphics/SVG/1.1/DTD/svg11.dtd">
<!-- Generated by graphviz version 2.40.1 (20161225.0304)
 -->
<!-- Title: dependencies Pages: 1 -->
<svg width="793pt" height="284pt"
 viewBox="0.00 0.00 793.00 284.00" xmlns="http://www.w3.org/2000/svg" xmlns:xlink="http://www.w3.org/1999/xlink">
<g id="graph0" class="graph" transform="scale(1 1) rotate(0) translate(4 280)">
<title>dependencies</title>
<polygon fill="#ffffff" stroke="transparent" points="-4,4 -4,-280 789,-280 789,4 -4,4"/>
<text text-anchor="start" x="371.5091" y="-42.4" font-family="sans-serif" font-weight="bold" font-size="14.00" fill="#000000">Legend</text>
<polygon fill="#ffffb3" stroke="transparent" points="158.5,-10 158.5,-30 178.5,-30 178.5,-10 158.5,-10"/>
<text text-anchor="start" x="182.129" y="-15.4" font-family="sans-serif" font-size="14.00" fill="#000000"> &#160;Declarations</text>
<polygon fill="#8dd3c7" stroke="transparent" points="271.5,-10 271.5,-30 291.5,-30 291.5,-10 271.5,-10"/>
<text text-anchor="start" x="295.2251" y="-15.4" font-family="sans-serif" font-size="14.00" fill="#000000"> &#160;Module</text>
<polygon fill="#80b1d3" stroke="transparent" points="357.5,-10 357.5,-30 377.5,-30 377.5,-10 357.5,-10"/>
<text text-anchor="start" x="381.2812" y="-15.4" font-family="sans-serif" font-size="14.00" fill="#000000"> &#160;Bootstrap</text>
<polygon fill="#fdb462" stroke="transparent" points="454.5,-10 454.5,-30 474.5,-30 474.5,-10 454.5,-10"/>
<text text-anchor="start" x="478.1732" y="-15.4" font-family="sans-serif" font-size="14.00" fill="#000000"> &#160;Providers</text>
<polygon fill="#fb8072" stroke="transparent" points="550.5,-10 550.5,-30 570.5,-30 570.5,-10 550.5,-10"/>
<text text-anchor="start" x="574.2258" y="-15.4" font-family="sans-serif" font-size="14.00" fill="#000000"> &#160;Exports</text>
<g id="clust1" class="cluster">
<title>cluster_AppModule</title>
<polygon fill="none" stroke="#000000" stroke-dasharray="1,5" points="8,-70 8,-268 777,-268 777,-70 8,-70"/>
</g>
<g id="clust2" class="cluster">
<title>cluster_AppModule_declarations</title>
<polygon fill="none" stroke="#000000" points="487,-78 487,-130 769,-130 769,-78 487,-78"/>
</g>
<g id="clust5" class="cluster">
<title>cluster_AppModule_imports</title>
<polygon fill="none" stroke="#000000" points="16,-78 16,-130 479,-130 479,-78 16,-78"/>
</g>
<g id="clust7" class="cluster">
<title>cluster_AppModule_bootstrap</title>
<polygon fill="none" stroke="#000000" points="345,-208 345,-260 469,-260 469,-208 345,-208"/>
</g>
<!-- AppComponent -->
<g id="node1" class="node">
<title>AppComponent</title>
<polygon fill="#ffffb3" stroke="#000000" points="760.9399,-122 655.0601,-122 655.0601,-86 760.9399,-86 760.9399,-122"/>
<text text-anchor="middle" x="708" y="-99.8" font-family="Times,serif" font-size="14.00" fill="#000000">AppComponent</text>
</g>
<!-- AppModule -->
<g id="node3" class="node">
<title>AppModule</title>
<polygon fill="#8dd3c7" stroke="#000000" points="448.6571,-187 445.6571,-191 424.6571,-191 421.6571,-187 365.3429,-187 365.3429,-151 448.6571,-151 448.6571,-187"/>
<text text-anchor="middle" x="407" y="-164.8" font-family="Times,serif" font-size="14.00" fill="#000000">AppModule</text>
</g>
<!-- AppComponent&#45;&gt;AppModule -->
<g id="edge1" class="edge">
<title>AppComponent&#45;&gt;AppModule</title>
<path fill="none" stroke="#000000" d="M708,-122.2843C708,-143.3211 708,-175 708,-175 708,-175 458.8528,-175 458.8528,-175"/>
<polygon fill="#000000" stroke="#000000" points="458.8528,-171.5001 448.8528,-175 458.8527,-178.5001 458.8528,-171.5001"/>
</g>
<!-- DashboardComponent -->
<g id="node2" class="node">
<title>DashboardComponent</title>
<polygon fill="#ffffb3" stroke="#000000" points="636.9734,-122 495.0266,-122 495.0266,-86 636.9734,-86 636.9734,-122"/>
<text text-anchor="middle" x="566" y="-99.8" font-family="Times,serif" font-size="14.00" fill="#000000">DashboardComponent</text>
</g>
<!-- DashboardComponent&#45;&gt;AppModule -->
<g id="edge2" class="edge">
<title>DashboardComponent&#45;&gt;AppModule</title>
<path fill="none" stroke="#000000" d="M566,-122.0225C566,-139.3734 566,-163 566,-163 566,-163 458.7754,-163 458.7754,-163"/>
<polygon fill="#000000" stroke="#000000" points="458.7754,-159.5001 448.7754,-163 458.7753,-166.5001 458.7754,-159.5001"/>
</g>
<!-- AppComponent  -->
<g id="node7" class="node">
<title>AppComponent </title>
<polygon fill="#80b1d3" stroke="#000000" points="461.439,-252 352.561,-252 352.561,-216 461.439,-216 461.439,-252"/>
<text text-anchor="middle" x="407" y="-229.8" font-family="Times,serif" font-size="14.00" fill="#000000">AppComponent </text>
</g>
<!-- AppModule&#45;&gt;AppComponent  -->
<g id="edge6" class="edge">
<title>AppModule&#45;&gt;AppComponent </title>
<path fill="none" stroke="#000000" stroke-dasharray="1,5" d="M407,-187.1061C407,-187.1061 407,-205.991 407,-205.991"/>
<polygon fill="#000000" stroke="#000000" points="403.5001,-205.9909 407,-215.991 410.5001,-205.991 403.5001,-205.9909"/>
</g>
<!-- AppRoutingModule -->
<g id="node4" class="node">
<title>AppRoutingModule</title>
<polygon fill="#8dd3c7" stroke="#000000" points="471.2744,-122 468.2744,-126 447.2744,-126 444.2744,-122 342.7256,-122 342.7256,-86 471.2744,-86 471.2744,-122"/>
<text text-anchor="middle" x="407" y="-99.8" font-family="Times,serif" font-size="14.00" fill="#000000">AppRoutingModule</text>
</g>
<!-- AppRoutingModule&#45;&gt;AppModule -->
<g id="edge3" class="edge">
<title>AppRoutingModule&#45;&gt;AppModule</title>
<path fill="none" stroke="#000000" d="M407,-122.1061C407,-122.1061 407,-140.991 407,-140.991"/>
<polygon fill="#000000" stroke="#000000" points="403.5001,-140.9909 407,-150.991 410.5001,-140.991 403.5001,-140.9909"/>
</g>
<!-- ProductModuleModule -->
<g id="node5" class="node">
<title>ProductModuleModule</title>
<polygon fill="#8dd3c7" stroke="#000000" points="324.1484,-122 321.1484,-126 300.1484,-126 297.1484,-122 177.8516,-122 177.8516,-86 324.1484,-86 324.1484,-122"/>
<text text-anchor="middle" x="251" y="-99.8" font-family="Times,serif" font-size="14.00" fill="#000000">ProductModuleModule</text>
</g>
<!-- ProductModuleModule&#45;&gt;AppModule -->
<g id="edge4" class="edge">
<title>ProductModuleModule&#45;&gt;AppModule</title>
<path fill="none" stroke="#000000" d="M251,-122.0225C251,-139.3734 251,-163 251,-163 251,-163 355.1949,-163 355.1949,-163"/>
<polygon fill="#000000" stroke="#000000" points="355.1949,-166.5001 365.1949,-163 355.1948,-159.5001 355.1949,-166.5001"/>
</g>
<!-- OrderModuleModule -->
<g id="node6" class="node">
<title>OrderModuleModule</title>
<polygon fill="#8dd3c7" stroke="#000000" points="159.7422,-122 156.7422,-126 135.7422,-126 132.7422,-122 24.2578,-122 24.2578,-86 159.7422,-86 159.7422,-122"/>
<text text-anchor="middle" x="92" y="-99.8" font-family="Times,serif" font-size="14.00" fill="#000000">OrderModuleModule</text>
</g>
<!-- OrderModuleModule&#45;&gt;AppModule -->
<g id="edge5" class="edge">
<title>OrderModuleModule&#45;&gt;AppModule</title>
<path fill="none" stroke="#000000" d="M92,-122.2843C92,-143.3211 92,-175 92,-175 92,-175 355.1704,-175 355.1704,-175"/>
<polygon fill="#000000" stroke="#000000" points="355.1705,-178.5001 365.1704,-175 355.1704,-171.5001 355.1705,-178.5001"/>
</g>
</g>
</svg>
