<?xml version="1.0" encoding="UTF-8" standalone="no"?>
<!DOCTYPE svg PUBLIC "-//W3C//DTD SVG 1.1//EN"
 "http://www.w3.org/Graphics/SVG/1.1/DTD/svg11.dtd">
<!-- Generated by graphviz version 2.40.1 (20161225.0304)
 -->
<!-- Title: dependencies Pages: 1 -->
<svg width="2147pt" height="360pt"
 viewBox="0.00 0.00 2147.00 360.00" xmlns="http://www.w3.org/2000/svg" xmlns:xlink="http://www.w3.org/1999/xlink">
<g id="graph0" class="graph" transform="scale(1 1) rotate(0) translate(4 356)">
<title>dependencies</title>
<polygon fill="#ffffff" stroke="transparent" points="-4,4 -4,-356 2143,-356 2143,4 -4,4"/>
<text text-anchor="start" x="1048.5091" y="-42.4" font-family="sans-serif" font-weight="bold" font-size="14.00" fill="#000000">Legend</text>
<polygon fill="#ffffb3" stroke="transparent" points="835.5,-10 835.5,-30 855.5,-30 855.5,-10 835.5,-10"/>
<text text-anchor="start" x="859.129" y="-15.4" font-family="sans-serif" font-size="14.00" fill="#000000"> &#160;Declarations</text>
<polygon fill="#8dd3c7" stroke="transparent" points="948.5,-10 948.5,-30 968.5,-30 968.5,-10 948.5,-10"/>
<text text-anchor="start" x="972.2251" y="-15.4" font-family="sans-serif" font-size="14.00" fill="#000000"> &#160;Module</text>
<polygon fill="#80b1d3" stroke="transparent" points="1034.5,-10 1034.5,-30 1054.5,-30 1054.5,-10 1034.5,-10"/>
<text text-anchor="start" x="1058.2812" y="-15.4" font-family="sans-serif" font-size="14.00" fill="#000000"> &#160;Bootstrap</text>
<polygon fill="#fdb462" stroke="transparent" points="1131.5,-10 1131.5,-30 1151.5,-30 1151.5,-10 1131.5,-10"/>
<text text-anchor="start" x="1155.1732" y="-15.4" font-family="sans-serif" font-size="14.00" fill="#000000"> &#160;Providers</text>
<polygon fill="#fb8072" stroke="transparent" points="1227.5,-10 1227.5,-30 1247.5,-30 1247.5,-10 1227.5,-10"/>
<text text-anchor="start" x="1251.2258" y="-15.4" font-family="sans-serif" font-size="14.00" fill="#000000"> &#160;Exports</text>
<g id="clust1" class="cluster">
<title>cluster_AppModule</title>
<polygon fill="none" stroke="#000000" stroke-dasharray="1,5" points="997,-146 997,-344 1765,-344 1765,-146 997,-146"/>
</g>
<g id="clust2" class="cluster">
<title>cluster_AppModule_declarations</title>
<polygon fill="none" stroke="#000000" points="1475,-154 1475,-206 1757,-206 1757,-154 1475,-154"/>
</g>
<g id="clust5" class="cluster">
<title>cluster_AppModule_imports</title>
<polygon fill="none" stroke="#000000" points="1005,-154 1005,-206 1467,-206 1467,-154 1005,-154"/>
</g>
<g id="clust7" class="cluster">
<title>cluster_AppModule_bootstrap</title>
<polygon fill="none" stroke="#000000" points="1333,-284 1333,-336 1457,-336 1457,-284 1333,-284"/>
</g>
<g id="clust15" class="cluster">
<title>cluster_OrderModuleModule</title>
<polygon fill="none" stroke="#000000" stroke-dasharray="1,5" points="1521,-70 1521,-138 2131,-138 2131,-70 1521,-70"/>
</g>
<g id="clust16" class="cluster">
<title>cluster_OrderModuleModule_declarations</title>
<polygon fill="none" stroke="#000000" points="1649,-78 1649,-130 2123,-130 2123,-78 1649,-78"/>
</g>
<g id="clust20" class="cluster">
<title>cluster_OrderModuleModule_imports</title>
<polygon fill="none" stroke="#000000" points="1529,-78 1529,-130 1641,-130 1641,-78 1529,-78"/>
</g>
<g id="clust24" class="cluster">
<title>cluster_ProductModuleModule</title>
<polygon fill="none" stroke="#000000" stroke-dasharray="1,5" points="8,-70 8,-138 1513,-138 1513,-70 8,-70"/>
</g>
<g id="clust25" class="cluster">
<title>cluster_ProductModuleModule_declarations</title>
<polygon fill="none" stroke="#000000" points="835,-78 835,-130 1505,-130 1505,-78 835,-78"/>
</g>
<g id="clust30" class="cluster">
<title>cluster_ProductModuleModule_imports</title>
<polygon fill="none" stroke="#000000" points="701,-78 701,-130 827,-130 827,-78 701,-78"/>
</g>
<g id="clust31" class="cluster">
<title>cluster_ProductModuleModule_exports</title>
<polygon fill="none" stroke="#000000" points="176,-78 176,-130 693,-130 693,-78 176,-78"/>
</g>
<g id="clust33" class="cluster">
<title>cluster_ProductModuleModule_providers</title>
<polygon fill="none" stroke="#000000" points="16,-78 16,-130 168,-130 168,-78 16,-78"/>
</g>
<!-- AppComponent -->
<g id="node1" class="node">
<title>AppComponent</title>
<polygon fill="#ffffb3" stroke="#000000" points="1748.9399,-198 1643.0601,-198 1643.0601,-162 1748.9399,-162 1748.9399,-198"/>
<text text-anchor="middle" x="1696" y="-175.8" font-family="Times,serif" font-size="14.00" fill="#000000">AppComponent</text>
</g>
<!-- AppModule -->
<g id="node3" class="node">
<title>AppModule</title>
<polygon fill="#8dd3c7" stroke="#000000" points="1436.6571,-263 1433.6571,-267 1412.6571,-267 1409.6571,-263 1353.3429,-263 1353.3429,-227 1436.6571,-227 1436.6571,-263"/>
<text text-anchor="middle" x="1395" y="-240.8" font-family="Times,serif" font-size="14.00" fill="#000000">AppModule</text>
</g>
<!-- AppComponent&#45;&gt;AppModule -->
<g id="edge1" class="edge">
<title>AppComponent&#45;&gt;AppModule</title>
<path fill="none" stroke="#000000" d="M1696,-198.2843C1696,-219.3211 1696,-251 1696,-251 1696,-251 1446.8528,-251 1446.8528,-251"/>
<polygon fill="#000000" stroke="#000000" points="1446.8528,-247.5001 1436.8528,-251 1446.8527,-254.5001 1446.8528,-247.5001"/>
</g>
<!-- DashboardComponent -->
<g id="node2" class="node">
<title>DashboardComponent</title>
<polygon fill="#ffffb3" stroke="#000000" points="1624.9734,-198 1483.0266,-198 1483.0266,-162 1624.9734,-162 1624.9734,-198"/>
<text text-anchor="middle" x="1554" y="-175.8" font-family="Times,serif" font-size="14.00" fill="#000000">DashboardComponent</text>
</g>
<!-- DashboardComponent&#45;&gt;AppModule -->
<g id="edge2" class="edge">
<title>DashboardComponent&#45;&gt;AppModule</title>
<path fill="none" stroke="#000000" d="M1554,-198.0225C1554,-215.3734 1554,-239 1554,-239 1554,-239 1446.7754,-239 1446.7754,-239"/>
<polygon fill="#000000" stroke="#000000" points="1446.7754,-235.5001 1436.7754,-239 1446.7753,-242.5001 1446.7754,-235.5001"/>
</g>
<!-- AppComponent  -->
<g id="node7" class="node">
<title>AppComponent </title>
<polygon fill="#80b1d3" stroke="#000000" points="1449.439,-328 1340.561,-328 1340.561,-292 1449.439,-292 1449.439,-328"/>
<text text-anchor="middle" x="1395" y="-305.8" font-family="Times,serif" font-size="14.00" fill="#000000">AppComponent </text>
</g>
<!-- AppModule&#45;&gt;AppComponent  -->
<g id="edge6" class="edge">
<title>AppModule&#45;&gt;AppComponent </title>
<path fill="none" stroke="#000000" stroke-dasharray="1,5" d="M1395,-263.1061C1395,-263.1061 1395,-281.991 1395,-281.991"/>
<polygon fill="#000000" stroke="#000000" points="1391.5001,-281.9909 1395,-291.991 1398.5001,-281.991 1391.5001,-281.9909"/>
</g>
<!-- AppRoutingModule -->
<g id="node4" class="node">
<title>AppRoutingModule</title>
<polygon fill="#8dd3c7" stroke="#000000" points="1459.2744,-198 1456.2744,-202 1435.2744,-202 1432.2744,-198 1330.7256,-198 1330.7256,-162 1459.2744,-162 1459.2744,-198"/>
<text text-anchor="middle" x="1395" y="-175.8" font-family="Times,serif" font-size="14.00" fill="#000000">AppRoutingModule</text>
</g>
<!-- AppRoutingModule&#45;&gt;AppModule -->
<g id="edge3" class="edge">
<title>AppRoutingModule&#45;&gt;AppModule</title>
<path fill="none" stroke="#000000" d="M1395,-198.1061C1395,-198.1061 1395,-216.991 1395,-216.991"/>
<polygon fill="#000000" stroke="#000000" points="1391.5001,-216.9909 1395,-226.991 1398.5001,-216.991 1391.5001,-216.9909"/>
</g>
<!-- ProductModuleModule -->
<g id="node5" class="node">
<title>ProductModuleModule</title>
<polygon fill="#8dd3c7" stroke="#000000" points="1159.1484,-198 1156.1484,-202 1135.1484,-202 1132.1484,-198 1012.8516,-198 1012.8516,-162 1159.1484,-162 1159.1484,-198"/>
<text text-anchor="middle" x="1086" y="-175.8" font-family="Times,serif" font-size="14.00" fill="#000000">ProductModuleModule</text>
</g>
<!-- ProductModuleModule&#45;&gt;AppModule -->
<g id="edge4" class="edge">
<title>ProductModuleModule&#45;&gt;AppModule</title>
<path fill="none" stroke="#000000" d="M1086,-198.2843C1086,-219.3211 1086,-251 1086,-251 1086,-251 1343.3269,-251 1343.3269,-251"/>
<polygon fill="#000000" stroke="#000000" points="1343.3269,-254.5001 1353.3269,-251 1343.3269,-247.5001 1343.3269,-254.5001"/>
</g>
<!-- ProductListComponent  -->
<g id="node17" class="node">
<title>ProductListComponent </title>
<polygon fill="#fb8072" stroke="#000000" points="685.1593,-122 534.8407,-122 534.8407,-86 685.1593,-86 685.1593,-122"/>
<text text-anchor="middle" x="610" y="-99.8" font-family="Times,serif" font-size="14.00" fill="#000000">ProductListComponent </text>
</g>
<!-- ProductModuleModule&#45;&gt;ProductListComponent  -->
<g id="edge16" class="edge">
<title>ProductModuleModule&#45;&gt;ProductListComponent </title>
<path fill="none" stroke="#000000" stroke-dasharray="5,2" d="M1012.6682,-178C879.1463,-178 610,-178 610,-178 610,-178 610,-132.2921 610,-132.2921"/>
<polygon fill="#000000" stroke="#000000" points="613.5001,-132.2921 610,-122.2921 606.5001,-132.2922 613.5001,-132.2921"/>
</g>
<!-- ProductAddComponent  -->
<g id="node18" class="node">
<title>ProductAddComponent </title>
<polygon fill="#fb8072" stroke="#000000" points="517.4882,-122 364.5118,-122 364.5118,-86 517.4882,-86 517.4882,-122"/>
<text text-anchor="middle" x="441" y="-99.8" font-family="Times,serif" font-size="14.00" fill="#000000">ProductAddComponent </text>
</g>
<!-- ProductModuleModule&#45;&gt;ProductAddComponent  -->
<g id="edge17" class="edge">
<title>ProductModuleModule&#45;&gt;ProductAddComponent </title>
<path fill="none" stroke="#000000" stroke-dasharray="5,2" d="M1012.6383,-183C843.5843,-183 441,-183 441,-183 441,-183 441,-132.3228 441,-132.3228"/>
<polygon fill="#000000" stroke="#000000" points="444.5001,-132.3227 441,-122.3228 437.5001,-132.3228 444.5001,-132.3227"/>
</g>
<!-- ProductDetailComponent  -->
<g id="node19" class="node">
<title>ProductDetailComponent </title>
<polygon fill="#fb8072" stroke="#000000" points="346.0889,-122 183.9111,-122 183.9111,-86 346.0889,-86 346.0889,-122"/>
<text text-anchor="middle" x="265" y="-99.8" font-family="Times,serif" font-size="14.00" fill="#000000">ProductDetailComponent </text>
</g>
<!-- ProductModuleModule&#45;&gt;ProductDetailComponent  -->
<g id="edge18" class="edge">
<title>ProductModuleModule&#45;&gt;ProductDetailComponent </title>
<path fill="none" stroke="#000000" stroke-dasharray="5,2" d="M1012.7808,-188C811.5579,-188 265,-188 265,-188 265,-188 265,-132.2267 265,-132.2267"/>
<polygon fill="#000000" stroke="#000000" points="268.5001,-132.2267 265,-122.2267 261.5001,-132.2268 268.5001,-132.2267"/>
</g>
<!-- OrderModuleModule -->
<g id="node6" class="node">
<title>OrderModuleModule</title>
<polygon fill="#8dd3c7" stroke="#000000" points="1312.7422,-198 1309.7422,-202 1288.7422,-202 1285.7422,-198 1177.2578,-198 1177.2578,-162 1312.7422,-162 1312.7422,-198"/>
<text text-anchor="middle" x="1245" y="-175.8" font-family="Times,serif" font-size="14.00" fill="#000000">OrderModuleModule</text>
</g>
<!-- OrderModuleModule&#45;&gt;AppModule -->
<g id="edge5" class="edge">
<title>OrderModuleModule&#45;&gt;AppModule</title>
<path fill="none" stroke="#000000" d="M1245,-198.0225C1245,-215.3734 1245,-239 1245,-239 1245,-239 1343.2166,-239 1343.2166,-239"/>
<polygon fill="#000000" stroke="#000000" points="1343.2167,-242.5001 1353.2166,-239 1343.2166,-235.5001 1343.2167,-242.5001"/>
</g>
<!-- OrderAddComponent -->
<g id="node8" class="node">
<title>OrderAddComponent</title>
<polygon fill="#ffffb3" stroke="#000000" points="2115.0814,-122 1976.9186,-122 1976.9186,-86 2115.0814,-86 2115.0814,-122"/>
<text text-anchor="middle" x="2046" y="-99.8" font-family="Times,serif" font-size="14.00" fill="#000000">OrderAddComponent</text>
</g>
<!-- OrderAddComponent&#45;&gt;OrderModuleModule -->
<g id="edge7" class="edge">
<title>OrderAddComponent&#45;&gt;OrderModuleModule</title>
<path fill="none" stroke="#000000" d="M2046,-122.1871C2046,-137.1824 2046,-156 2046,-156 2046,-156 1286.9981,-156 1286.9981,-156 1286.9981,-156 1286.9981,-156.581 1286.9981,-156.581"/>
<polygon fill="#000000" stroke="#000000" points="1283.4983,-151.8097 1286.9981,-161.8097 1290.4983,-151.8098 1283.4983,-151.8097"/>
</g>
<!-- OrderListComponent -->
<g id="node9" class="node">
<title>OrderListComponent</title>
<polygon fill="#ffffb3" stroke="#000000" points="1958.7534,-122 1823.2466,-122 1823.2466,-86 1958.7534,-86 1958.7534,-122"/>
<text text-anchor="middle" x="1891" y="-99.8" font-family="Times,serif" font-size="14.00" fill="#000000">OrderListComponent</text>
</g>
<!-- OrderListComponent&#45;&gt;OrderModuleModule -->
<g id="edge8" class="edge">
<title>OrderListComponent&#45;&gt;OrderModuleModule</title>
<path fill="none" stroke="#000000" d="M1891,-122.0439C1891,-134.5633 1891,-149 1891,-149 1891,-149 1261.1251,-149 1261.1251,-149 1261.1251,-149 1261.1251,-151.9672 1261.1251,-151.9672"/>
<polygon fill="#000000" stroke="#000000" points="1257.6252,-151.9671 1261.1251,-161.9672 1264.6252,-151.9672 1257.6252,-151.9671"/>
</g>
<!-- OrderDetailComponent -->
<g id="node10" class="node">
<title>OrderDetailComponent</title>
<polygon fill="#ffffb3" stroke="#000000" points="1805.1825,-122 1656.8175,-122 1656.8175,-86 1805.1825,-86 1805.1825,-122"/>
<text text-anchor="middle" x="1731" y="-99.8" font-family="Times,serif" font-size="14.00" fill="#000000">OrderDetailComponent</text>
</g>
<!-- OrderDetailComponent&#45;&gt;OrderModuleModule -->
<g id="edge9" class="edge">
<title>OrderDetailComponent&#45;&gt;OrderModuleModule</title>
<path fill="none" stroke="#000000" d="M1702.8142,-122.1097C1702.8142,-131.897 1702.8142,-142 1702.8142,-142 1702.8142,-142 1235.2522,-142 1235.2522,-142 1235.2522,-142 1235.2522,-151.8903 1235.2522,-151.8903"/>
<polygon fill="#000000" stroke="#000000" points="1231.7523,-151.8903 1235.2522,-161.8903 1238.7523,-151.8904 1231.7523,-151.8903"/>
</g>
<!-- ordersRouting -->
<g id="node11" class="node">
<title>ordersRouting</title>
<polygon fill="#8dd3c7" stroke="#000000" points="1633.0983,-122 1630.0983,-126 1609.0983,-126 1606.0983,-122 1536.9017,-122 1536.9017,-86 1633.0983,-86 1633.0983,-122"/>
<text text-anchor="middle" x="1585" y="-99.8" font-family="Times,serif" font-size="14.00" fill="#000000">ordersRouting</text>
</g>
<!-- ordersRouting&#45;&gt;OrderModuleModule -->
<g id="edge10" class="edge">
<title>ordersRouting&#45;&gt;OrderModuleModule</title>
<path fill="none" stroke="#000000" d="M1580.9688,-122.2434C1580.9688,-129.4297 1580.9688,-136 1580.9688,-136 1580.9688,-136 1209.3792,-136 1209.3792,-136 1209.3792,-136 1209.3792,-151.8495 1209.3792,-151.8495"/>
<polygon fill="#000000" stroke="#000000" points="1205.8793,-151.8494 1209.3792,-161.8495 1212.8793,-151.8495 1205.8793,-151.8494"/>
</g>
<!-- ProductListComponent -->
<g id="node12" class="node">
<title>ProductListComponent</title>
<polygon fill="#ffffb3" stroke="#000000" points="1497.1596,-122 1350.8404,-122 1350.8404,-86 1497.1596,-86 1497.1596,-122"/>
<text text-anchor="middle" x="1424" y="-99.8" font-family="Times,serif" font-size="14.00" fill="#000000">ProductListComponent</text>
</g>
<!-- ProductListComponent&#45;&gt;ProductModuleModule -->
<g id="edge11" class="edge">
<title>ProductListComponent&#45;&gt;ProductModuleModule</title>
<path fill="none" stroke="#000000" d="M1405.0288,-122.1686C1405.0288,-126.0459 1405.0288,-129 1405.0288,-129 1405.0288,-129 1110.4413,-129 1110.4413,-129 1110.4413,-129 1110.4413,-151.8757 1110.4413,-151.8757"/>
<polygon fill="#000000" stroke="#000000" points="1106.9414,-151.8757 1110.4413,-161.8757 1113.9414,-151.8757 1106.9414,-151.8757"/>
</g>
<!-- ProductAddComponent -->
<g id="node13" class="node">
<title>ProductAddComponent</title>
<polygon fill="#ffffb3" stroke="#000000" points="1332.4874,-122 1183.5126,-122 1183.5126,-86 1332.4874,-86 1332.4874,-122"/>
<text text-anchor="middle" x="1258" y="-99.8" font-family="Times,serif" font-size="14.00" fill="#000000">ProductAddComponent</text>
</g>
<!-- ProductAddComponent&#45;&gt;ProductModuleModule -->
<g id="edge12" class="edge">
<title>ProductAddComponent&#45;&gt;ProductModuleModule</title>
<path fill="none" stroke="#000000" d="M1183.3868,-104C1176.0972,-104 1171.3366,-104 1171.3366,-104 1171.3366,-104 1171.3366,-180 1171.3366,-180 1171.3366,-180 1169.4709,-180 1169.4709,-180"/>
<polygon fill="#000000" stroke="#000000" points="1169.4709,-176.5001 1159.4709,-180 1169.4709,-183.5001 1169.4709,-176.5001"/>
</g>
<!-- ProductDetailComponent -->
<g id="node14" class="node">
<title>ProductDetailComponent</title>
<polygon fill="#ffffb3" stroke="#000000" points="1165.5884,-122 1006.4116,-122 1006.4116,-86 1165.5884,-86 1165.5884,-122"/>
<text text-anchor="middle" x="1086" y="-99.8" font-family="Times,serif" font-size="14.00" fill="#000000">ProductDetailComponent</text>
</g>
<!-- ProductDetailComponent&#45;&gt;ProductModuleModule -->
<g id="edge13" class="edge">
<title>ProductDetailComponent&#45;&gt;ProductModuleModule</title>
<path fill="none" stroke="#000000" d="M1061.5587,-122.0109C1061.5587,-122.0109 1061.5587,-151.855 1061.5587,-151.855"/>
<polygon fill="#000000" stroke="#000000" points="1058.0588,-151.8549 1061.5587,-161.855 1065.0588,-151.855 1058.0588,-151.8549"/>
</g>
<!-- StoreDetailComponent -->
<g id="node15" class="node">
<title>StoreDetailComponent</title>
<polygon fill="#ffffb3" stroke="#000000" points="988.5884,-122 843.4116,-122 843.4116,-86 988.5884,-86 988.5884,-122"/>
<text text-anchor="middle" x="916" y="-99.8" font-family="Times,serif" font-size="14.00" fill="#000000">StoreDetailComponent</text>
</g>
<!-- StoreDetailComponent&#45;&gt;ProductModuleModule -->
<g id="edge14" class="edge">
<title>StoreDetailComponent&#45;&gt;ProductModuleModule</title>
<path fill="none" stroke="#000000" d="M916,-122.1686C916,-141.0898 916,-168 916,-168 916,-168 1002.4243,-168 1002.4243,-168"/>
<polygon fill="#000000" stroke="#000000" points="1002.4243,-171.5001 1012.4243,-168 1002.4242,-164.5001 1002.4243,-171.5001"/>
</g>
<!-- productsRouting -->
<g id="node16" class="node">
<title>productsRouting</title>
<polygon fill="#8dd3c7" stroke="#000000" points="818.8287,-122 815.8287,-126 794.8287,-126 791.8287,-122 709.1713,-122 709.1713,-86 818.8287,-86 818.8287,-122"/>
<text text-anchor="middle" x="764" y="-99.8" font-family="Times,serif" font-size="14.00" fill="#000000">productsRouting</text>
</g>
<!-- productsRouting&#45;&gt;ProductModuleModule -->
<g id="edge15" class="edge">
<title>productsRouting&#45;&gt;ProductModuleModule</title>
<path fill="none" stroke="#000000" d="M764,-122.1289C764,-142.5724 764,-173 764,-173 764,-173 1002.5303,-173 1002.5303,-173"/>
<polygon fill="#000000" stroke="#000000" points="1002.5303,-176.5001 1012.5303,-173 1002.5303,-169.5001 1002.5303,-176.5001"/>
</g>
<!-- UploadService -->
<g id="node20" class="node">
<title>UploadService</title>
<ellipse fill="#fdb462" stroke="#000000" cx="92" cy="-104" rx="68.3382" ry="18"/>
<text text-anchor="middle" x="92" y="-99.8" font-family="Times,serif" font-size="14.00" fill="#000000">UploadService</text>
</g>
<!-- UploadService&#45;&gt;ProductModuleModule -->
<g id="edge19" class="edge">
<title>UploadService&#45;&gt;ProductModuleModule</title>
<path fill="none" stroke="#000000" d="M92,-122.0105C92,-148.0165 92,-193 92,-193 92,-193 1002.5051,-193 1002.5051,-193"/>
<polygon fill="#000000" stroke="#000000" points="1002.5052,-196.5001 1012.5051,-193 1002.5051,-189.5001 1002.5052,-196.5001"/>
</g>
</g>
</svg>
